<?xml version="1.0" encoding="utf-8"?>
<!-- Generator: Adobe Illustrator 16.0.0, SVG Export Plug-In . SVG Version: 6.00 Build 0)  -->
<!DOCTYPE svg PUBLIC "-//W3C//DTD SVG 1.1//EN" "http://www.w3.org/Graphics/SVG/1.1/DTD/svg11.dtd">
<svg version="1.1" id="Layer_1" xmlns="http://www.w3.org/2000/svg" xmlns:xlink="http://www.w3.org/1999/xlink" x="0px" y="0px"
	 width="387.695px" height="504px" viewBox="406.154 0 387.695 504" enable-background="new 406.154 0 387.695 504"
	 xml:space="preserve">
<g>
	<path fill="none" d="M722.274,106.352l47.189,0.031L712.19,34.024v62.248C712.19,101.839,716.711,106.352,722.274,106.352z"/>
	<path fill="none" d="M710.174,118.448c-5.566,0-10.079-4.513-10.079-10.08v-89.63v-6.695H426.807
		c-6.057,0-10.961,4.904-10.961,10.948v0.004v386.347v71.665c0,6.048,4.912,10.952,10.961,10.952h61.643h284.744
		c6.053,0,10.957-4.908,10.957-10.952V118.448h-5.142H710.174z M473.031,97.893c0-5.351,4.338-9.692,9.691-9.692h98.862
		c5.354,0,9.692,4.342,9.692,9.692v2.907c0,5.354-4.339,9.692-9.692,9.692h-98.862c-5.354,0-9.691-4.338-9.691-9.692V97.893z
		 M726.969,406.107c0,5.354-4.338,9.692-9.691,9.692H482.723c-5.354,0-9.691-4.338-9.691-9.692V403.2
		c0-5.354,4.338-9.692,9.691-9.692h234.555c5.354,0,9.691,4.338,9.691,9.692V406.107z M726.969,345.046
		c0,5.354-4.338,9.692-9.691,9.692H482.723c-5.354,0-9.691-4.338-9.691-9.692v-2.907c0-5.354,4.338-9.692,9.691-9.692h234.555
		c5.354,0,9.691,4.338,9.691,9.692V345.046z M726.969,283.984c0,5.354-4.338,9.692-9.691,9.692H482.723
		c-5.354,0-9.691-4.338-9.691-9.692v-2.907c0-5.354,4.338-9.692,9.691-9.692h234.555c5.354,0,9.691,4.338,9.691,9.692V283.984z
		 M726.969,222.923c0,5.354-4.338,9.692-9.691,9.692H482.723c-5.354,0-9.691-4.338-9.691-9.692v-2.907
		c0-5.351,4.338-9.692,9.691-9.692h234.555c5.354,0,9.691,4.342,9.691,9.692V222.923z M726.969,161.861
		c0,5.354-4.338,9.692-9.691,9.692H482.723c-5.354,0-9.691-4.338-9.691-9.692v-2.907c0-5.351,4.338-9.692,9.691-9.692h234.555
		c5.354,0,9.691,4.342,9.691,9.692V161.861z"/>
	<path d="M717.277,149.262H482.723c-5.354,0-9.691,4.342-9.691,9.692v2.907c0,5.354,4.338,9.692,9.691,9.692h234.555
		c5.354,0,9.691-4.338,9.691-9.692v-2.907C726.969,153.604,722.631,149.262,717.277,149.262z"/>
	<path d="M482.723,110.492h98.862c5.354,0,9.692-4.338,9.692-9.692v-2.907c0-5.351-4.339-9.692-9.692-9.692h-98.862
		c-5.354,0-9.691,4.342-9.691,9.692v2.907C473.031,106.154,477.369,110.492,482.723,110.492z"/>
	<path d="M717.277,210.323H482.723c-5.354,0-9.691,4.342-9.691,9.692v2.907c0,5.354,4.338,9.692,9.691,9.692h234.555
		c5.354,0,9.691-4.338,9.691-9.692v-2.907C726.969,214.665,722.631,210.323,717.277,210.323z"/>
	<path d="M717.277,271.385H482.723c-5.354,0-9.691,4.338-9.691,9.692v2.907c0,5.354,4.338,9.692,9.691,9.692h234.555
		c5.354,0,9.691-4.338,9.691-9.692v-2.907C726.969,275.723,722.631,271.385,717.277,271.385z"/>
	<path d="M717.277,332.446H482.723c-5.354,0-9.691,4.338-9.691,9.692v2.907c0,5.354,4.338,9.692,9.691,9.692h234.555
		c5.354,0,9.691-4.338,9.691-9.692v-2.907C726.969,336.784,722.631,332.446,717.277,332.446z"/>
	<path d="M717.277,393.508H482.723c-5.354,0-9.691,4.338-9.691,9.692v2.907c0,5.354,4.338,9.692,9.691,9.692h234.555
		c5.354,0,9.691-4.338,9.691-9.692V403.2C726.969,397.846,722.631,393.508,717.277,393.508z"/>
	<path d="M784.305,106.391l-0.15-0.186L712.19,15.283l-2.562-3.241L700.095,0H417.691c-6.373,0-11.537,5.148-11.537,11.503v0.004
		v405.735v75.251c0,6.358,5.168,11.507,11.537,11.507h64.893h299.725c6.373,0,11.541-5.148,11.541-11.507V118.448L784.305,106.391z
		 M712.19,34.024l57.273,72.359l-47.189-0.031c-5.567,0-10.088-4.513-10.088-10.08V34.024H712.19z M784.154,481.006
		c0,6.048-4.908,10.952-10.957,10.952H488.453h-61.643c-6.049,0-10.961-4.908-10.961-10.952v-71.665V22.994V22.99
		c0-6.044,4.904-10.948,10.961-10.948h273.288v6.699v89.63c0,5.567,4.513,10.08,10.079,10.08h68.839h5.138V481.006z"/>
</g>
</svg>
