<?xml version="1.0" encoding="utf-8"?>
<!-- Generator: Adobe Illustrator 16.0.0, SVG Export Plug-In . SVG Version: 6.00 Build 0)  -->
<!DOCTYPE svg PUBLIC "-//W3C//DTD SVG 1.1//EN" "http://www.w3.org/Graphics/SVG/1.1/DTD/svg11.dtd">
<svg version="1.1" id="Layer_1" xmlns="http://www.w3.org/2000/svg" xmlns:xlink="http://www.w3.org/1999/xlink" x="0px" y="0px"
	 width="496.98px" height="497px" viewBox="351.52 3.5 496.98 497" enable-background="new 351.52 3.5 496.98 497"
	 xml:space="preserve">
<g opacity="0.8">
	<path fill="none" stroke="#FFFFFF" stroke-width="14" stroke-miterlimit="10" d="M800.55,493.5H621
		c-22.05,0-40.95-17.85-40.95-40.95V51.45c0-23.1,18.9-40.95,40.95-40.95h179.55c23.101,0,40.95,17.85,40.95,40.95v401.1
		C841.5,475.65,823.65,493.5,800.55,493.5z"/>
	<line fill="none" stroke="#FFFFFF" stroke-width="14" stroke-miterlimit="10" x1="586.35" y1="265.65" x2="835.2" y2="265.65"/>
	<ellipse fill="none" stroke="#FFFFFF" stroke-width="14" stroke-miterlimit="10" cx="711.3" cy="373.8" rx="61.95" ry="64.05"/>
	<line fill="none" stroke="#FFFFFF" stroke-width="14" stroke-miterlimit="10" x1="798.45" y1="51.45" x2="798.45" y2="233.1"/>
	<line fill="none" stroke="#FFFFFF" stroke-width="14" stroke-miterlimit="10" x1="739.65" y1="194.25" x2="739.65" y2="233.1"/>
	<line fill="none" stroke="#FFFFFF" stroke-width="14" stroke-miterlimit="10" x1="681.9" y1="149.1" x2="681.9" y2="233.1"/>
	<line fill="none" stroke="#FFFFFF" stroke-width="14" stroke-miterlimit="10" x1="624.15" y1="96.6" x2="624.15" y2="233.1"/>
	<path fill="none" stroke="#FFFFFF" stroke-width="14" stroke-miterlimit="10" d="M419.4,76.65c27.3-6.3,55.649,12.6,69.3,36.75
		c13.649,24.15,16.8,54.6,16.8,82.95c0,22.05-1.05,43.05-3.15,65.1c-2.1,22.05-6.3,46.2,3.15,67.2
		c12.6,27.3,49.35,38.85,74.55,24.149"/>
	<path fill="none" stroke="#FFFFFF" stroke-width="14" stroke-miterlimit="10" d="M581.1,268.8c-7.35,10.5-19.949,14.7-31.5,11.55
		c-12.6-3.15-21-14.7-27.3-26.25c-8.399-14.7-15.75-31.5-24.149-46.2c-9.45-14.7-21-29.4-36.75-34.65s-35.7-3.15-46.2,11.55
		c-12.601,17.85-5.25,42-7.351,64.05"/>
	<ellipse fill="none" stroke="#FFFFFF" stroke-width="14" stroke-miterlimit="10" cx="404.7" cy="280.35" rx="27.3" ry="35.7"/>
	<path fill="none" stroke="#FFFFFF" stroke-width="14" stroke-miterlimit="10" d="M403.65,114.45c-16.8,8.4-36.75,3.15-43.05-10.5
		C354.3,90.3,362.7,71.4,380.55,63c17.851-8.4,36.75-3.15,43.05,10.5C429.9,87.15,420.45,106.05,403.65,114.45z"/>
</g>
</svg>
