<svg xmlns="http://www.w3.org/2000/svg" xmlns:xlink="http://www.w3.org/1999/xlink" version="1.1" x="0px" y="0px" viewBox="0 0 100 125" style="enable-background:new 0 0 100 100;" xml:space="preserve"><style type="text/css">
	.st0{fill:none;stroke:#000000;stroke-width:2;stroke-miterlimit:10;}
	.st1{fill:none;stroke:#000000;stroke-miterlimit:10;}
</style><g><path class="st0" d="M50,18.9c-17.1,0-31.1,13.9-31.1,31.1S32.9,81.1,50,81.1S81.1,67.1,81.1,50S67.1,18.9,50,18.9z"/><path class="st0" d="M93.3,49.5L93.3,49.5c-1.3-2.4-1.5-5.1-0.8-7.7c1.2-4.1-0.3-8.5-3.7-11.1c-2.2-1.6-3.6-3.9-4-6.6   c-0.7-4.2-3.9-7.6-8.1-8.4c-2.6-0.5-5-2-6.5-4.2h0c-2.4-3.5-6.8-5.1-11-4c-2.6,0.7-5.3,0.4-7.6-1c-3.7-2.1-8.4-1.6-11.6,1.2l0,0   c-2,1.8-4.6,2.6-7.3,2.5c-4.3-0.3-8.3,2.2-10,6.1c-1.1,2.5-3,4.4-5.5,5.4c-4,1.6-6.5,5.5-6.3,9.8v0c0.1,2.7-0.8,5.3-2.6,7.2   C5.3,42,4.7,46.7,6.7,50.5h0c1.3,2.4,1.5,5.1,0.8,7.7v0c-1.2,4.1,0.3,8.5,3.7,11.1v0c2.2,1.6,3.6,3.9,4,6.6   c0.7,4.2,3.9,7.6,8.1,8.4c2.6,0.5,5,2,6.5,4.2h0c2.4,3.5,6.8,5.1,11,4c2.6-0.7,5.3-0.4,7.6,1c3.7,2.1,8.4,1.6,11.6-1.2h0   c2-1.8,4.6-2.6,7.3-2.5c4.3,0.3,8.3-2.2,10-6.1v0c1.1-2.5,3-4.4,5.5-5.4c4-1.6,6.5-5.5,6.3-9.8c-0.1-2.7,0.8-5.3,2.6-7.2   C94.7,58,95.3,53.3,93.3,49.5z M50,85.5c-19.6,0-35.5-15.9-35.5-35.5c0-19.6,15.9-35.5,35.5-35.5c19.6,0,35.5,15.9,35.5,35.5   C85.5,69.6,69.6,85.5,50,85.5z"/></g><text x="0" y="115" fill="#000000" font-size="5px" font-weight="bold" font-family="'Helvetica Neue', Helvetica, Arial-Unicode, Arial, Sans-serif">Created by Guilhem</text><text x="0" y="120" fill="#000000" font-size="5px" font-weight="bold" font-family="'Helvetica Neue', Helvetica, Arial-Unicode, Arial, Sans-serif">from the Noun Project</text></svg>