<?xml version="1.0" encoding="utf-8"?>
<!-- Generator: Adobe Illustrator 16.0.0, SVG Export Plug-In . SVG Version: 6.00 Build 0)  -->
<!DOCTYPE svg PUBLIC "-//W3C//DTD SVG 1.1//EN" "http://www.w3.org/Graphics/SVG/1.1/DTD/svg11.dtd">
<svg version="1.1" id="Layer_1" xmlns="http://www.w3.org/2000/svg" xmlns:xlink="http://www.w3.org/1999/xlink" x="0px" y="0px"
	 width="463.68px" height="316.144px" viewBox="370.68 95.186 463.68 316.144"
	 enable-background="new 370.68 95.186 463.68 316.144" xml:space="preserve">
<g opacity="0.2">
	<g>
		<path fill="#BC6D4F" d="M370.68,305.948c0,58.202,47.179,105.381,105.381,105.381s105.381-47.179,105.381-105.381
			c0-57.486-46.05-104.192-103.265-105.326c26.606-26.092,63.046-42.21,103.265-42.21V95.186
			C465.044,95.186,370.68,189.549,370.68,305.948z M834.36,95.186c-116.399,0-210.763,94.364-210.763,210.763
			c0,58.202,47.184,105.381,105.381,105.381c58.202,0,105.382-47.179,105.382-105.381c0-57.486-46.051-104.192-103.265-105.326
			c26.605-26.092,63.05-42.21,103.265-42.21V95.186z"/>
	</g>
</g>
</svg>
