<?xml version="1.0" encoding="utf-8"?>
<!-- Generator: Adobe Illustrator 16.0.0, SVG Export Plug-In . SVG Version: 6.00 Build 0)  -->
<!DOCTYPE svg PUBLIC "-//W3C//DTD SVG 1.1//EN" "http://www.w3.org/Graphics/SVG/1.1/DTD/svg11.dtd">
<svg version="1.1" id="Layer_1" xmlns="http://www.w3.org/2000/svg" xmlns:xlink="http://www.w3.org/1999/xlink" x="0px" y="0px"
	 width="462.212px" height="465.51px" viewBox="368.894 19.245 462.212 465.51"
	 enable-background="new 368.894 19.245 462.212 465.51" xml:space="preserve">
<g opacity="0.8">
	<path fill="none" stroke="#FFFFFF" stroke-width="14" stroke-miterlimit="10" d="M600,95.256
		c-86.184,0-156.744,70.056-156.744,156.744c0,86.688,70.561,156.744,156.744,156.744S756.744,338.184,756.744,252
		C756.744,165.816,686.184,95.256,600,95.256z"/>
	<path fill="none" stroke="#FFFFFF" stroke-width="14" stroke-miterlimit="10" d="M818.232,249.48L818.232,249.48
		c-6.553-12.096-7.561-25.704-4.032-38.808c6.048-20.664-1.513-42.84-18.648-55.944c-11.088-8.064-18.144-19.656-20.16-33.264
		c-3.527-21.168-19.655-38.304-40.823-42.336c-13.104-2.52-25.2-10.08-32.761-21.168l0,0c-12.096-17.64-34.271-25.704-55.439-20.16
		c-13.104,3.528-26.712,2.016-38.304-5.04c-18.648-10.584-42.336-8.064-58.465,6.048l0,0c-10.08,9.072-23.184,13.104-36.792,12.6
		c-21.672-1.512-41.831,11.088-50.399,30.744c-5.544,12.6-15.12,22.176-27.72,27.216c-20.16,8.064-32.761,27.72-31.753,49.392l0,0
		c0.505,13.608-4.031,26.712-13.104,36.288c-15.12,16.632-18.144,40.32-8.064,59.472l0,0c6.552,12.096,7.56,25.704,4.032,38.808l0,0
		c-6.048,20.664,1.512,42.84,18.648,55.944l0,0c11.088,8.063,18.144,19.655,20.16,33.264c3.527,21.168,19.655,38.304,40.823,42.336
		c13.104,2.52,25.2,10.08,32.761,21.168l0,0c12.096,17.64,34.271,25.704,55.439,20.16c13.104-3.528,26.712-2.017,38.304,5.04
		c18.648,10.584,42.336,8.063,58.465-6.048l0,0c10.08-9.072,23.184-13.104,36.792-12.601c21.672,1.513,41.832-11.088,50.399-30.744
		l0,0c5.544-12.6,15.12-22.176,27.721-27.216c20.159-8.063,32.76-27.72,31.752-49.392c-0.504-13.608,4.031-26.712,13.104-36.288
		C825.288,292.32,828.312,268.632,818.232,249.48z M600,430.92c-98.784,0-178.92-80.136-178.92-178.92S501.216,73.08,600,73.08
		S778.92,153.216,778.92,252S698.784,430.92,600,430.92z"/>
</g>
</svg>
