<?xml version="1.0" encoding="utf-8"?>
<!-- Generator: Adobe Illustrator 16.0.0, SVG Export Plug-In . SVG Version: 6.00 Build 0)  -->
<!DOCTYPE svg PUBLIC "-//W3C//DTD SVG 1.1//EN" "http://www.w3.org/Graphics/SVG/1.1/DTD/svg11.dtd">
<svg version="1.1" id="Layer_1" xmlns="http://www.w3.org/2000/svg" xmlns:xlink="http://www.w3.org/1999/xlink" x="0px" y="0px"
	 width="448.56px" height="400.073px" viewBox="375.569 47.32 448.56 400.073"
	 enable-background="new 375.569 47.32 448.56 400.073" xml:space="preserve">
<title>stethoscope</title>
<path stroke="#000000" stroke-width="5" stroke-miterlimit="10" d="M784.212,401.234c-9.241,0-16.732-7.491-16.732-16.732
	s7.491-16.733,16.732-16.733s16.733,7.492,16.733,16.733l0,0C800.945,393.743,793.453,401.234,784.212,401.234z M784.212,373.363
	c-6.151,0-11.139,4.986-11.139,11.139c0,6.151,4.987,11.138,11.139,11.138s11.139-4.986,11.139-11.138l0,0
	C795.351,378.35,790.363,373.363,784.212,373.363z M788.899,344.887c-2.908-42.572-39.777-74.726-82.349-71.818
	c-35.641,2.435-64.965,28.984-70.918,64.208c-2.52,15.372,0.958,31.147-2.218,46.47c-4.897,23.271-21.784,42.192-44.352,49.694
	c-44.806,14.565-86.386-20.866-86.688-65.823c0-25.199,0-49.946,0-74.944c20.682-0.535,40.881-6.366,58.666-16.935
	C600,252,620.463,210.672,620.563,166.018c0-33.163,0-66.276,0-99.439c-0.025-3.021-2.425-5.486-5.443-5.594H600
	c-2.797-8.209-10.53-13.709-19.202-13.658c-11.44-0.265-20.929,8.795-21.193,20.235c-0.265,11.44,8.795,20.929,20.235,21.193
	c10.098,0.325,18.956-6.681,20.967-16.582h8.719v75.6c0,11.39,0.555,23.033-0.555,34.373
	c-6.383,61.128-61.11,105.507-122.238,99.124c-18.603-1.942-36.415-8.542-51.792-19.189c-35.28-24.595-47.931-62.496-48.032-103.824
	c0-28.694,0-57.372,0-86.033h9.223c2.141,11.352,13.079,18.818,24.43,16.677c11.352-2.141,18.818-13.078,16.678-24.43
	s-13.078-18.818-24.43-16.678c-7.197,1.357-13.159,6.38-15.72,13.241h-15.927c-3.078,0.027-5.567,2.516-5.594,5.595
	c0,30.542,0,61.084,0,91.627c0,41.63,11.743,79.985,45.36,107.201c20.032,16.084,44.604,25.479,70.258,26.863v67.486
	c0,31.803,10.08,61.337,39.362,77.868c34.872,19.214,78.612,9.169,101.606-23.336c9.792-14.83,14.595-32.398,13.709-50.147
	c0-18.85,0.655-36.489,12.096-52.567c36.237-50.904,114.206-25.2,119.801,33.566c-21.723,3.591-36.422,24.111-32.831,45.834
	c3.591,21.724,24.111,36.422,45.834,32.831c19.255-3.183,33.375-19.837,33.365-39.353
	C823.702,364.439,808.774,347.654,788.899,344.887z M570.97,68.09c0-12.398,18.497-12.247,19.151,0
	C589.416,80.337,570.97,80.64,570.97,68.09z M426.02,68.09c-0.655,12.247-19.152,12.348-19.152,0s18.446-12.297,19.102,0H426.02z
	 M755.434,384.502c0-37.146,55.439-36.843,57.507,0C810.975,421.344,755.434,421.697,755.434,384.502z"/>
</svg>
